#!OML:ASF H:\BreakDance\Project 1\Capture day 1\Session 1\Male.ASF
:FULLY-SPECIFIED
:DEGREES
1438
root -4.05136 15.0045 6.96382 199.256 -31.3679 197.623
lowerback 20.039 -1.67156 -0.357307
upperback 10.7802 -4.43431 -8.44745
thorax -0.145935 -2.74541 -8.01955
lowerneck -5.12806 9.90502 8.87524
upperneck -19.3048 11.0031 -13.1274
head -3.58859 5.12539 -5.55997
rclavicle -2.54444e-014 -6.83819e-014
rhumerus 6.49528 5.0092 -59.2743
rradius 26.8904
rwrist -3.42319
rhand -35.53 -15.0217
rfingers 7.12502
rthumb -8.65623 -44.8242
lclavicle -2.54444e-014 -6.83819e-014
lhumerus 63.335 -10.9492 63.2037
lradius 12.2746
lwrist -22.7761
lhand -37.2922 -20.683
lfingers 7.12502
lthumb -10.3565 9.04196
rfemur -85.7828 10.3125 17.5888
rtibia 69.1968
rfoot -4.34502 -2.33416
rtoes 6.97602
lfemur 108.172 176.776 182.482
ltibia 82.4652
lfoot -23.1105 -5.46559
ltoes -31.3749
1439
root -4.15015 14.8795 7.0988 199.799 -28.4719 196.683
lowerback 20.4481 -0.787411 -0.716642
upperback 10.6022 -3.50373 -8.81918
thorax -0.416787 -2.33529 -8.41482
lowerneck -5.4623 9.84141 8.70691
upperneck -19.2869 10.7308 -14.1525
head -3.48513 5.03342 -5.83453
rclavicle 1.27222e-014 6.04305e-014
rhumerus 9.50237 7.66001 -58.625
rradius 29.5637
rwrist -4.77793
rhand -35.773 -14.1869
rfingers 7.12502
rthumb -8.89078 -43.9796
lclavicle 1.27222e-014 6.04305e-014
lhumerus 61.9914 -6.2889 65.9944
lradius 10.7863
lwrist -26.2502
lhand -36.7422 -19.5429
lfingers 7.12502
lthumb -9.82588 10.2079
rfemur -86.2373 9.50505 16.2977
rtibia 72.104
rfoot -4.48381 -3.01846
rtoes 10.1313
lfemur 107.508 176.194 182.876
ltibia 83.2051
lfoot -22.9107 -7.69635
ltoes -31.8104
1440
root -4.25316 14.7383 7.22881 200.323 -25.6159 195.733
lowerback 20.8774 0.107433 -1.08699
upperback 10.4005 -2.56782 -9.17702
thorax -0.716927 -1.92219 -8.80245
lowerneck -5.75441 9.77458 8.6532
upperneck -19.2731 10.4483 -15.2243
head -3.38176 4.92624 -6.14685
rclavicle 1.90833e-014 -3.02153e-014
rhumerus 12.5214 9.86977 -57.6611
rradius 32.2816
rwrist -5.75392
rhand -35.9605 -13.379
rfingers 7.12502
rthumb -9.07165 -43.1639
lclavicle 1.90833e-014 -3.02153e-014
lhumerus 60.9221 -2.81467 66.7062
lradius 9.38885
lwrist -27.5016
lhand -36.5957 -17.958
lfingers 7.12502
lthumb -9.68461 11.7993
rfemur -86.6544 8.60924 14.9865
rtibia 74.9605
rfoot -4.53296 -3.23618
rtoes 11.828
lfemur 106.696 175.463 183.015
ltibia 84.0206
lfoot -22.8253 -9.72549
ltoes -31.7885
1441
root -4.36095 14.5806 7.35351 200.811 -22.8505 194.852
lowerback 21.2904 0.993958 -1.41716
upperback 10.1777 -1.62821 -9.48294
thorax -1.02642 -1.50223 -9.17033
lowerneck -5.99188 9.71609 8.74532
upperneck -19.2453 10.1711 -16.3765
head -3.2688 4.81314 -6.51265
rclavicle -1.59028e-014 4.6118e-014
rhumerus 15.5404 11.6992 -56.4418
rradius 35.0066
rwrist -6.48947
rhand -36.099 -12.4167
rfingers 7.12502
rthumb -9.20534 -42.1957
lclavicle -1.59028e-014 4.6118e-014
lhumerus 59.7042 0.547772 67.462
lradius 8.14617
lwrist -28.6376
lhand -36.5867 -16.3199
lfingers 7.12502
lthumb -9.67592 13.4379
rfemur -87.0444 7.60809 13.755
rtibia 77.7699
rfoot -4.49199 -3.01712
rtoes 11.5814
lfemur 105.69 174.592 183.005
ltibia 84.9201
lfoot -22.8255 -11.5523
ltoes -31.5881
1442
root -4.47343 14.4047 7.47302 201.294 -20.2349 194.047
lowerback 21.6425 1.84531 -1.66433
upperback 9.95133 -0.699886 -9.72662
thorax -1.30651 -1.07918 -9.52703
lowerneck -6.27189 9.66177 8.91171
upperneck -19.1334 9.90284 -17.543
head -3.11893 4.69296 -6.89301
rclavicle -1.08139e-013 -3.18055e-014
rhumerus 18.5531 13.1863 -55.0111
rradius 37.7336
rwrist -7.08151
rhand -36.2141 -11.5023
rfingers 7.12502
rthumb -9.31636 -41.2765
lclavicle -1.08139e-013 -3.18055e-014
lhumerus 58.3471 3.81582 68.2362
lradius 7.10523
lwrist -29.4882
lhand -36.6741 -14.7593
lfingers 7.12502
lthumb -9.76027 14.9945
rfemur -87.4405 6.4277 12.666
rtibia 80.5581
rfoot -4.38222 -2.44082
rtoes 9.04548
lfemur 104.433 173.612 182.879
ltibia 85.8948
lfoot -22.9021 -13.1632
ltoes -31.509
1443
root -4.58978 14.2104 7.58742 201.797 -17.8108 193.317
lowerback 21.9076 2.63438 -1.79051
upperback 9.73722 0.197426 -9.91393
thorax -1.52832 -0.660378 -9.89269
lowerneck -6.6281 9.6167 9.11517
upperneck -18.9411 9.65437 -18.687
head -2.93142 4.56871 -7.26926
rclavicle -3.18055e-015 -1.41535e-013
rhumerus 21.5652 14.3424 -53.4367
rradius 40.4526
rwrist -7.63105
rhand -36.2147 -10.7153
rfingers 7.12502
rthumb -9.31701 -40.4894
lclavicle -3.18055e-015 -1.41535e-013
lhumerus 56.8673 7.02217 68.9794
lradius 6.28089
lwrist -29.9315
lhand -36.801 -13.4293
lfingers 7.12502
lthumb -9.88262 16.3188
rfemur -87.8579 5.0088 11.7638
rtibia 83.3523
rfoot -4.26446 -1.6237
rtoes 4.23421
lfemur 102.903 172.544 182.646
ltibia 86.9264
lfoot -23.0546 -14.587
ltoes -31.7849
1444
root -4.70942 13.9998 7.69615 202.328 -15.5686 192.633
lowerback 22.0858 3.35258 -1.79431
upperback 9.54511 1.05047 -10.0749
thorax -1.68007 -0.253136 -10.2949
lowerneck -7.07865 9.58209 9.31853
upperneck -18.6666 9.43473 -19.7688
head -2.70681 4.44385 -7.6217
rclavicle 1.11319e-013 1.1609e-013
rhumerus 24.5645 15.1914 -51.8125
rradius 43.1622
rwrist -8.15131
rhand -36.0628 -10.2095
rfingers 7.12502
rthumb -9.17037 -39.9901
lclavicle 1.11319e-013 1.1609e-013
lhumerus 55.2832 10.1868 69.6278
lradius 5.64663
lwrist -29.9506
lhand -36.91 -12.4687
lfingers 7.12502
lthumb -9.98785 17.2743
rfemur -88.2753 3.328 11.036
rtibia 86.1632
rfoot -4.22594 -0.727485
rtoes -1.70919
lfemur 101.142 171.402 182.274
ltibia 88.0015
lfoot -23.3101 -15.8297
ltoes -32.5309
1445
root -4.83123 13.7753 7.79889 202.884 -13.4822 191.949
lowerback 22.2057 4.00351 -1.70756
upperback 9.37416 1.84725 -10.2485
thorax -1.77531 0.133618 -10.7547
lowerneck -7.63342 9.55258 9.45754
upperneck -18.3014 9.25583 -20.6792
head -2.45175 4.32417 -7.90303
rclavicle 7.95139e-014 1.25632e-013
rhumerus 27.5293 15.7704 -50.2404
rradius 45.8152
rwrist -8.62094
rhand -35.8763 -9.86528
rfingers 7.12502
rthumb -8.99042 -39.6537
lclavicle 7.95139e-014 1.25632e-013
lhumerus 53.6013 13.2996 70.1146
lradius 5.15643
lwrist -29.605
lhand -36.9225 -11.9581
lfingers 7.12502
lthumb -9.99985 17.7844
rfemur -88.6581 1.36528 10.4385
rtibia 88.983
rfoot -4.27739 0.0969689
rtoes -7.11135
lfemur 99.2102 170.202 181.699
ltibia 89.1385
lfoot -23.6956 -16.9044
ltoes -33.778
1446
root -4.95321 13.5411 7.89577 203.421 -11.545 191.272
lowerback 22.322 4.59432 -1.55078
upperback 9.21587 2.58392 -10.4459
thorax -1.8489 0.495512 -11.2737
lowerneck -8.2133 9.52741 9.55139
upperneck -17.9017 9.12219 -21.3811
head -2.19662 4.21681 -8.109
rclavicle -3.49861e-014 -1.63799e-013
rhumerus 30.4479 16.1409 -48.8034
rradius 48.3689
rwrist -9.02896
rhand -35.703 -9.67682
rfingers 7.12502
rthumb -8.82319 -39.4724
lclavicle -3.49861e-014 -1.63799e-013
lhumerus 51.7961 16.3268 70.3831
lradius 4.78035
lwrist -28.997
lhand -36.7736 -11.8561
lfingers 7.12502
lthumb -9.85625 17.8932
rfemur -88.9325 -0.859396 9.96133
rtibia 91.778
rfoot -4.35202 0.714908
rtoes -10.4496
lfemur 97.1772 168.955 180.939
ltibia 90.3898
lfoot -24.0531 -18.0202
ltoes -34.9584
1447
root -5.07379 13.3016 7.98718 203.879 -9.7592 190.621
lowerback 22.4832 5.13682 -1.34007
upperback 9.07165 3.26836 -10.6491
thorax -1.92253 0.834509 -11.8267
lowerneck -8.79201 9.49711 9.57357
upperneck -17.4605 9.02997 -21.8413
head -1.94833 4.12545 -8.22375
rclavicle -6.36111e-014 -2.06736e-013
rhumerus 33.3195 16.3663 -47.5157
rradius 50.7889
rwrist -9.37132
rhand -35.6089 -9.57278
rfingers 7.12502
rthumb -8.73244 -39.3721
lclavicle -6.36111e-014 -2.06736e-013
lhumerus 49.8372 19.2233 70.4295
lradius 4.49892
lwrist -28.2946
lhand -36.4535 -12.0277
lfingers 7.12502
lthumb -9.54734 17.736
rfemur -89.0021 -3.3138 9.57507
rtibia 94.5018
rfoot -4.34282 1.05884
rtoes -10.4033
lfemur 95.1149 167.676 180.003
ltibia 91.8651
lfoot -24.3423 -19.2251
ltoes -35.8924
